<?xml version="1.0" encoding="utf-8"?>
<!-- Generator: Adobe Illustrator 16.0.0, SVG Export Plug-In . SVG Version: 6.00 Build 0)  -->
<!DOCTYPE svg PUBLIC "-//W3C//DTD SVG 1.1//EN" "http://www.w3.org/Graphics/SVG/1.1/DTD/svg11.dtd">
<svg version="1.1" xmlns="http://www.w3.org/2000/svg" xmlns:xlink="http://www.w3.org/1999/xlink" x="0px" y="0px" width="298.5px"
	 height="134px" viewBox="0 0 597 268" enable-background="new 0 0 597 268" xml:space="preserve">
<g id="Option_2">
	<g id="Layer_10">
		<linearGradient id="lozenge_1_" gradientUnits="userSpaceOnUse" x1="432.6875" y1="95.2622" x2="432.6875" y2="245.7056">
			<stop  offset="0" style="stop-color:#E33129"/>
			<stop  offset="1" style="stop-color:#BE2428"/>
		</linearGradient>
		<path id="lozenge_2_" fill="url(#lozenge_1_)" d="M537.975,127.717c0,0-2.1-14.74-8.542-21.231
			c-8.17-8.519-17.329-8.562-21.529-9.06c-30.066-2.164-75.168-2.164-75.168-2.164h-0.095c0,0-45.103,0-75.17,2.164
			c-4.2,0.498-13.356,0.541-21.528,9.06c-6.442,6.492-8.54,21.231-8.54,21.231s-2.148,17.309-2.148,34.619v16.229
			c0,17.309,2.148,34.617,2.148,34.617s2.098,14.738,8.54,21.23c8.172,8.521,18.91,8.252,23.691,9.143
			c17.188,1.643,73.053,2.15,73.053,2.15s45.15-0.066,75.217-2.23c4.2-0.5,13.359-0.541,21.529-9.062
			c6.442-6.492,8.542-21.23,8.542-21.23s2.146-17.309,2.146-34.617v-16.229C540.12,145.026,537.975,127.717,537.975,127.717z"/>
		<path id="u_2_" fill="#010101" d="M314.163,217.01H300.49v-7.916c-5.183,5.939-9.576,8.941-14.365,8.941
			c-4.202,0-7.121-1.982-8.582-5.564c-0.888-2.178-1.518-5.578-1.518-10.572v-57.565h13.672v53.968c0,3.053,0,4.316,0,5.037
			c0.319,2.02,1.176,2.756,2.915,2.756c2.616,0,4.985-2.273,7.878-6.355v-55.405h13.672V217.01z"/>
		<path id="o_2_" fill="#010101" d="M265.951,168.079c0-7.766-1.56-13.599-4.317-17.269c-3.641-4.971-9.354-7.006-15.111-7.006
			c-6.516,0-11.474,2.035-15.11,7.006c-2.801,3.67-4.305,9.566-4.305,17.333l-0.013,25.84c0,7.723,1.336,13.059,4.138,16.695
			c3.638,4.955,9.534,7.582,15.29,7.582c5.757,0,11.757-2.627,15.399-7.582c2.758-3.637,4.029-8.973,4.029-16.695V168.079z
			 M252.281,195.423c0.719,7.194-1.512,10.765-5.757,10.765c-4.247,0-6.476-3.57-5.756-10.765V166.64
			c-0.72-7.196,1.511-10.568,5.756-10.568s6.483,3.373,5.765,10.568L252.281,195.423z"/>
		<path id="y_2_" fill="#010101" d="M211.986,177.433v39.577h-14.393v-39.577c0,0-14.912-48.521-17.989-57.564h15.111l10.099,37.902
			l10.049-37.902h15.111L211.986,177.433z"/>
		<path id="e_1_" fill="#FFFFFF" d="M522.14,183.189l-0.002-14.71c0-7.686-1.515-13.307-4.238-16.944
			c-3.65-4.92-8.839-7.524-15.372-7.524c-6.65,0-11.838,2.604-15.606,7.524c-2.768,3.638-4.382,9.578-4.382,17.263v25.185
			c0,7.641,1.775,12.99,4.542,16.588c3.766,4.914,8.954,7.365,15.769,7.365c6.807,0,12.152-2.572,15.756-7.793
			c1.584-2.305,2.607-4.918,3.047-7.807c0.116-1.305,0.462-4.275,0.462-8.473v-2.039h-13.671c0,5.227,0.023,8.334-0.098,9.043
			c-0.743,3.482-2.612,5.227-5.818,5.227c-4.473,0-6.361-3.344-6.317-9.982v-12.922H522.14z M496.21,164.451
			c0-6.724,1.845-8.559,6.196-8.559c4.317,0,6.037,1.998,6.037,8.649v7.855l-12.233,0.014V164.451z"/>
		<path id="b_1_" fill="#FFFFFF" d="M461.749,143.899c-4.792,0-9.557,2.947-13.765,8.125L448,120.588h-12.951v96.422H448
			l0.019-7.246c4.354,5.387,9.099,8.172,13.73,8.172c5.188,0,8.978-2.775,10.716-8.123c0.87-3.049,1.439-7.74,1.439-14.39V166.64
			c0-6.811-0.873-11.467-1.743-14.359C470.424,146.895,466.937,143.899,461.749,143.899z M460.232,196.142
			c0,7.196-1.696,9.952-5.452,9.952c-2.146,0-4.617-1.104-6.796-3.281L448,159.174c2.18-2.15,4.635-3.282,6.78-3.282
			c3.756,0,5.452,2.113,5.452,9.309V196.142z"/>
		<path id="u_1_" fill="#FFFFFF" d="M424.254,217.01h-13.671v-7.916c-5.183,5.939-9.576,8.941-14.366,8.941
			c-4.201,0-7.12-1.982-8.58-5.564c-0.889-2.178-1.519-5.578-1.519-10.572v-56.845h13.673v53.248c0,3.053,0,4.316,0,5.037
			c0.318,2.02,1.176,2.756,2.913,2.756c2.617,0,4.985-2.273,7.879-6.355v-54.685h13.671V217.01z"/>
		<polygon id="T" fill="#FFFFFF" points="372.446,217.01 358.056,217.01 358.056,134.26 342.944,134.26 342.944,120.603 
			388.277,120.588 388.277,134.26 372.446,134.26 		"/>
	</g>
	<g id="Layer_2_copy">
		
			<ellipse transform="matrix(0.9781 -0.2079 0.2079 0.9781 -26.1926 26.7004)" fill="#45C3D5" cx="113.923" cy="137.954" rx="30.805" ry="72.221"/>
		
			<ellipse transform="matrix(0.9781 -0.2079 0.2079 0.9781 -26.7892 26.6179)" fill="#29969E" cx="113.235" cy="140.753" rx="21.283" ry="49.895"/>
	</g>
	<path fill="none" stroke="#000000" stroke-width="8" stroke-miterlimit="10" d="M113,211.5L67.5,93c0,0-6.5-16,12.5-25
		c0,0,19-5.919,22.5,11.291L127,207c0,0,9,8.75,3.5,17.5C130.5,224.5,110,238,113,211.5z"/>
	<path fill="#B21E3E" d="M80.25,115L117,210.5c0,0-2,11.25,2.25,13.25c0,0,0.25,1.5,8-1.75c0,0,3.75-5-4.25-13.25l-18.811-100.5
		C104.189,108.25,89.75,104,80.25,115z"/>
	<path fill="#ED184B" d="M82.688,116.217l35.344,94.064c0,0-2.531,10.594,1.719,12.594c0,0-0.781,1.625,6.969-1.625
		c0,0,3.656-3.688-4.344-11.938l-19.812-98.938C102.562,110.375,92.188,105.217,82.688,116.217z"/>
	<path fill="#841530" d="M104.189,108.25c0,0-15.021-4.208-23.939,6.958C80.25,115.208,95.004,120.167,104.189,108.25z"/>
	<polygon fill="#FFFFFF" points="122.375,204.062 119.256,205.062 118.562,203.5 122.031,202.266 	"/>
	<polygon fill="#FFFFFF" points="120.875,195.646 117.756,196.646 117.062,195.083 120.531,193.849 	"/>
	<polygon fill="#FFFFFF" points="118.969,187.826 115.85,188.826 115.156,187.263 118.625,186.029 	"/>
	<polygon fill="#FFFFFF" points="117.736,180.576 113.188,182.062 112.625,180.421 117.392,178.779 	"/>
	<polygon fill="#FFFFFF" points="116.361,172.451 111.103,173.451 110.678,171.962 116.017,170.654 	"/>
	<polygon fill="#FFFFFF" points="114.455,163.576 108.25,165.188 107.75,163.438 114.111,161.779 	"/>
	<polygon fill="#FFFFFF" points="112.548,154.326 105.562,156.375 105.265,154.452 112.205,152.529 	"/>
	<polygon fill="#FFFFFF" points="111.173,144.826 102.25,147.062 101.708,145.25 110.83,143.029 	"/>
	<polygon fill="#FFFFFF" points="109.267,135.576 99.812,137.688 99.261,135.938 108.923,133.779 	"/>
	<polygon fill="#FFFFFF" points="107.361,125.242 96.625,127.938 96.056,126 107.017,123.445 	"/>
	<polygon fill="#FFFFFF" points="105.647,116.042 93.312,119.062 92.875,116.75 105.147,113.371 	"/>
	<polygon fill="#FFFFFF" points="103.548,106.129 89.188,109.812 88.562,107.442 103.188,103.75 	"/>
	<polygon fill="#FFFFFF" points="101.642,96.713 84.688,102.688 83.438,99.312 101.188,93.562 	"/>
	<polygon fill="#FFFFFF" points="99.354,84.296 82.125,88.875 82.125,84.781 98.75,80.688 	"/>
	<polygon fill="#FBF060" points="97.447,58.667 110.642,34 99.354,30 	"/>
	<polygon fill="#FBF060" points="85,58.667 86.667,16.001 71.667,16.001 	"/>
	<polygon fill="#FBF060" points="69.333,61.334 63.667,35.334 51.333,40.334 	"/>
	<polygon fill="#FBF060" points="56,69.001 40,28.001 27.003,39.482 	"/>
	<polygon fill="#FBF060" points="47,75.5 27.003,55.5 18,69.001 	"/>
	<g>
		<path d="M149.969,65.489l0.342-9.69c-3.648-0.456-6.708-1.69-9.177-3.705c-2.47-2.014-3.705-4.711-3.705-8.094
			c0-2.773,1.368-5.462,4.104-8.065c2.736-2.603,6.003-3.905,9.804-3.905c5.586,0,8.379,3.629,8.379,10.887
			c0,2.128-0.142,5.387-0.427,9.775c-0.285,4.389-0.428,7.705-0.428,9.947c0,2.243,0.607,3.363,1.824,3.363
			c0.721,0,1.776-0.617,3.164-1.853c1.387-1.234,2.555-2.574,3.505-4.019c0.835-8.587,1.254-13.717,1.254-15.39
			c0-1.672-0.01-2.812-0.028-3.42c-0.02-0.607-0.057-1.197-0.114-1.767c-0.057-0.57-0.095-0.998-0.114-1.283
			c-0.02-0.285-0.095-0.674-0.228-1.168c-0.134-0.494-0.209-0.778-0.228-0.855c-0.02-0.076-0.114-0.399-0.285-0.969
			c-0.171-0.57-0.256-0.874-0.256-0.912c1.938-1.026,5.11-1.805,9.519-2.337v0.057c0.417,1.331,0.627,3.24,0.627,5.729
			c0,2.489-0.38,6.812-1.14,12.968c-0.76,6.156-1.14,10.231-1.14,12.226c0,1.995,0.579,2.993,1.738,2.993
			c1.159,0,2.565-1.026,4.218-3.078c1.653-2.052,3.172-4.731,4.56-8.037c1.387-3.306,2.251-6.517,2.594-9.633
			c0-3.078-1.616-6.63-4.845-10.659c0.76-1.634,1.748-3.107,2.964-4.417c1.215-1.311,2.242-2.213,3.078-2.708l1.254-0.798
			c1.405,0,2.612,0.998,3.619,2.993c1.006,1.995,1.511,4.332,1.511,7.011c0,2.679-0.722,6.119-2.166,10.317
			c-1.445,4.199-3.259,8.236-5.443,12.112c-2.186,3.876-4.751,7.192-7.695,9.946c-2.945,2.756-5.748,4.133-8.407,4.133
			c-1.368,0-2.565-0.684-3.591-2.052c-1.026-1.368-1.559-3.115-1.596-5.244c-1.634,2.28-3.363,4.066-5.187,5.358
			c-1.824,1.292-3.648,1.938-5.472,1.938s-3.344-0.741-4.56-2.223C150.577,69.479,149.969,67.655,149.969,65.489z M150.824,43.031
			c0-2.355-0.219-3.961-0.656-4.816c-0.437-0.855-1.273-1.282-2.508-1.282c-1.235,0-2.661,0.684-4.275,2.052
			c-1.616,1.368-2.423,3.155-2.423,5.358c0,2.205,0.959,4.028,2.878,5.472c1.918,1.445,4.151,2.166,6.698,2.166
			C150.729,48.37,150.824,45.388,150.824,43.031z"/>
		<path d="M201.725,34.88c0-1.254-0.114-2.146-0.342-2.679c2.964-1.026,5.757-1.539,8.379-1.539
			c0.342,0.342,0.513,1.216,0.513,2.622c0,2.508-1.064,8.284-3.192,17.328c3.078-2.242,5.776-3.363,8.094-3.363
			c1.444,0,2.537,0.456,3.277,1.368c0.741,0.912,1.112,2.119,1.112,3.619c0,1.502-0.438,3.953-1.311,7.353
			c-0.875,3.401-1.311,5.729-1.311,6.982c0,1.254,0.151,1.881,0.456,1.881c0.304,0,1.102-0.342,2.394-1.026l0.684-0.342l1.026,1.995
			c-0.342,0.305-0.798,0.684-1.368,1.14c-0.57,0.456-1.616,1.064-3.135,1.824c-1.52,0.76-2.917,1.14-4.189,1.14
			c-1.273,0-2.29-0.409-3.049-1.226c-0.761-0.817-1.14-1.918-1.14-3.306c0-1.387,0.428-3.913,1.283-7.581
			c0.855-3.667,1.282-5.985,1.282-6.954c0-0.969-0.399-1.454-1.197-1.454c-0.989,0-2.223,0.418-3.705,1.254
			c-2.09,9.197-3.135,15.162-3.135,17.898c-1.596,0.608-4.313,0.912-8.151,0.912c-0.038-0.646-0.057-1.216-0.057-1.71
			c0-1.633,1.13-7.219,3.391-16.758C200.594,44.722,201.725,38.263,201.725,34.88z"/>
		<path d="M240.312,48.902c0.076-0.076,0.285-0.57,0.627-1.482c1.786,0,4.18,0.533,7.182,1.596c-0.95,3.154-1.71,6.451-2.28,9.889
			c-0.57,3.44-0.855,5.891-0.855,7.353c0,1.463,0.151,2.195,0.456,2.195c0.228,0,1.063-0.361,2.508-1.083l0.684-0.342l1.026,1.995
			c-0.342,0.305-0.789,0.684-1.339,1.14c-0.551,0.456-1.587,1.074-3.106,1.853c-1.521,0.778-2.889,1.168-4.104,1.168
			c-2.357,0-3.725-1.063-4.104-3.192c-2.433,2.128-4.627,3.192-6.583,3.192c-1.958,0-3.611-0.76-4.959-2.28
			c-1.35-1.519-2.023-3.913-2.023-7.182c0-5.092,1.044-9.11,3.135-12.056c2.089-2.944,4.617-4.417,7.581-4.417
			C236.284,47.249,238.336,47.8,240.312,48.902z M233.815,68.339c0.912,0,1.938-0.36,3.078-1.083
			c0.266-5.358,1.159-10.659,2.679-15.903c-1.14-0.494-2.109-0.741-2.907-0.741c-1.368,0-2.536,1.34-3.505,4.019
			c-0.969,2.679-1.454,5.634-1.454,8.864C231.706,66.724,232.408,68.339,233.815,68.339z"/>
		<path d="M268.527,47.933c-0.076,0.95-0.398,2.052-0.969,3.306c-1.444-0.151-2.812-0.228-4.104-0.228h-1.025
			c-1.748,8.474-2.622,13.756-2.622,15.846c0,1.103,0.237,1.653,0.713,1.653c0.475,0,1.738-0.475,3.79-1.425l1.026,1.881
			c-3.383,2.813-6.518,4.218-9.405,4.218c-1.331,0-2.422-0.418-3.278-1.254c-0.855-0.835-1.282-1.947-1.282-3.334
			c0-1.387,0.161-2.955,0.484-4.703c0.322-1.748,0.77-3.885,1.339-6.413c0.57-2.527,0.988-4.569,1.254-6.127
			c-1.406,0.114-2.451,0.228-3.135,0.342c-0.077-0.456-0.114-1.073-0.114-1.853c0-0.778,0.057-1.415,0.171-1.909h3.591
			c0.304-2.052,0.456-3.99,0.456-5.814l-0.057-1.767v-0.171c2.964-1.026,5.757-1.539,8.379-1.539c0.151,0.761,0.229,1.71,0.229,2.85
			c0,1.14-0.323,3.287-0.969,6.441H268.527z"/>
		<path d="M279.016,35.849c0,3.497-2.09,7.619-6.27,12.369l-2.679-1.653c1.975-3.04,3.077-5.358,3.306-6.954l-3.363-2.052
			c0-1.33,0.313-2.641,0.94-3.933c0.627-1.292,1.264-2.299,1.91-3.021c2.127,0,3.818,0.57,5.072,1.71
			C278.654,32.961,279.016,34.139,279.016,35.849z"/>
		<path d="M299.308,65.033c0,2.394-1.055,4.352-3.164,5.871c-2.108,1.521-4.513,2.28-7.21,2.28c-2.699,0-4.836-0.57-6.413-1.71
			c-1.577-1.14-2.365-2.146-2.365-3.021c0-0.532,0.664-1.396,1.995-2.594c1.33-1.197,2.451-1.928,3.363-2.194
			c1.899,1.406,3.457,3.629,4.674,6.669c1.405-0.114,2.108-0.778,2.108-1.995c0-1.747-1.538-4.227-4.616-7.438
			c-3.078-3.21-4.617-5.766-4.617-7.667c0-1.899,0.854-3.372,2.564-4.417c1.71-1.044,3.771-1.567,6.185-1.567
			s4.228,0.427,5.444,1.283c1.215,0.855,1.823,2.014,1.823,3.477c0,1.463-1.159,3.487-3.477,6.071
			c0.266,0.266,0.607,0.618,1.025,1.054c0.418,0.438,0.97,1.264,1.653,2.479C298.966,62.83,299.308,63.97,299.308,65.033z
			 M296.229,52.037c0-1.33-0.912-1.995-2.736-1.995c-0.874,0-1.596,0.181-2.166,0.542c-0.569,0.362-0.854,0.77-0.854,1.226
			c0,0.836,0.835,2.015,2.508,3.534l0.854,0.741C295.432,54.716,296.229,53.368,296.229,52.037z"/>
		<path d="M323.02,42.974c0-0.722-0.086-1.254-0.257-1.596c-0.171-0.342-0.542-0.835-1.111-1.482l0.057-0.399
			c2.014-1.177,4.521-1.767,7.524-1.767c1.177,0,2.052,0.095,2.622,0.285c0.189,0.38,0.284,1.168,0.284,2.365
			c0,1.197-0.911,5.482-2.735,12.854c0.835,0.342,1.785,0.513,2.85,0.513c1.824,0,3.325-0.627,4.503-1.881
			c1.178-1.254,1.947-2.612,2.309-4.076c0.361-1.462,0.542-3.011,0.542-4.646c0-3.001-0.808-5.177-2.423-6.526
			c-1.615-1.349-4.228-2.023-7.838-2.023c-4.712,0-8.626,0.95-11.741,2.85c-3.116,1.901-4.675,3.896-4.675,5.985
			c0,1.064,0.408,1.929,1.226,2.593c0.817,0.666,1.662,1.111,2.537,1.339c-0.152,1.368-0.627,2.774-1.425,4.218
			c-1.445-0.19-2.822-0.949-4.133-2.28c-1.312-1.33-1.967-3.078-1.967-5.244c0-3.876,2.166-6.992,6.498-9.348
			c4.332-2.355,9.386-3.534,15.162-3.534c5.775,0,10.146,0.96,13.11,2.879c2.964,1.919,4.445,4.893,4.445,8.92
			c0,5.282-2.108,9.272-6.326,11.97c-2.28,1.482-5.017,2.223-8.208,2.223c-2.015,0-3.744-0.304-5.188-0.912
			c-1.596,6.498-2.565,11.705-2.907,15.618c-2.242,0.646-4.73,0.969-7.467,0.969c-0.646,0-1.121-0.057-1.425-0.171
			c0.189-2.394,1.263-7.372,3.221-14.934C322.04,50.176,323.02,45.254,323.02,42.974z"/>
		<path d="M353.799,73.184c-2.622,0-4.675-0.921-6.156-2.765c-1.482-1.843-2.224-4.417-2.224-7.724
			c0-4.218,1.131-7.846,3.392-10.887c2.261-3.04,5.387-4.56,9.377-4.56l2.052,0.114c0.646-0.342,1.368-0.513,2.166-0.513
			c3.002,0,4.503,2.831,4.503,8.493c1.558-0.076,3.135-0.285,4.731-0.627l0.912-0.228l0.342,2.223
			c-1.254,0.533-2.945,1.007-5.073,1.425l-1.14,0.228c-0.723,3.99-2.186,7.458-4.39,10.403
			C360.087,71.712,357.256,73.184,353.799,73.184z M356.876,68.282c1.597,0,3.03-1.026,4.304-3.078
			c1.272-2.052,2.156-4.218,2.65-6.498c-4.066,0-6.099-1.52-6.099-4.56c0-1.216,0.247-2.355,0.741-3.42l0.285-0.57
			c-0.152-0.076-0.343-0.114-0.57-0.114c-0.229,0-0.399,0.038-0.513,0.114c-0.951,0.608-1.844,2.034-2.68,4.275
			c-0.836,2.243-1.254,4.808-1.254,7.695C353.741,66.23,354.786,68.282,356.876,68.282z"/>
		<path d="M367.478,85.268c-0.189-0.456-0.284-1.463-0.284-3.021c0-1.559,0.74-5.748,2.223-12.568
			c1.481-6.821,2.223-12.074,2.223-15.761c0-0.721-0.171-1.491-0.513-2.309c-0.342-0.816-0.704-1.454-1.083-1.909l-0.513-0.627
			l0.057-0.741c1.786-0.57,4.939-0.855,9.462-0.855c0.418,0.798,0.684,1.919,0.798,3.363c2.926-2.394,5.367-3.591,7.325-3.591
			c1.956,0,3.533,0.817,4.73,2.451c1.197,1.634,1.796,4.028,1.796,7.182c0,5.51-1.008,9.604-3.021,12.284
			c-2.015,2.679-4.56,4.019-7.638,4.019c-1.596,0-2.927-0.228-3.99-0.684l-0.57-0.228l0.399-2.223
			c0.342,0.077,0.741,0.114,1.197,0.114c0.987,0,1.853-0.456,2.593-1.368c0.741-0.912,1.302-2.071,1.682-3.477
			c0.76-2.812,1.141-5.415,1.141-7.809c0-3.42-0.704-5.13-2.109-5.13c-1.103,0-2.28,0.438-3.534,1.311
			c-0.152,2.66-0.932,7.315-2.337,13.965c-1.406,6.649-2.108,12.008-2.108,16.074C373.349,84.564,370.707,85.078,367.478,85.268z"/>
		<path d="M396.775,68.196c0-1.614,0.493-4.389,1.482-8.322c0.987-3.933,1.481-6.346,1.481-7.239c0-0.893-0.684-2.081-2.052-3.562
			l0.057-0.741c2.584-0.532,5.985-0.798,10.203-0.798c0.189,0.494,0.285,1.387,0.285,2.679c0,1.292-0.532,4.047-1.596,8.265
			c-1.064,4.218-1.597,6.84-1.597,7.866c0,1.026,0.38,1.539,1.141,1.539c1.102,0,2.374-0.399,3.818-1.197
			c0.151-0.912,0.532-2.66,1.141-5.244c1.368-6.079,2.052-10.431,2.052-13.053c1.33-0.532,3.724-0.798,7.182-0.798h1.083
			c0,1.787-0.532,5.272-1.596,10.459c-1.064,5.187-1.596,8.228-1.596,9.12c0,0.894,0.189,1.339,0.569,1.339
			c0.229,0,1.312-0.456,3.249-1.368l1.083,1.824c-3.382,2.813-6.347,4.218-8.892,4.218c-1.217,0-2.252-0.342-3.106-1.026
			c-0.855-0.684-1.34-1.577-1.453-2.679c-3.078,2.508-5.871,3.762-8.38,3.762c-1.33,0-2.422-0.438-3.277-1.311
			C397.203,71.056,396.775,69.812,396.775,68.196z"/>
		<path d="M429.18,73.184c-1.312,0-2.395-0.438-3.249-1.311c-0.855-0.874-1.283-2.099-1.283-3.677c0-1.576,0.94-6.612,2.822-15.105
			c1.881-8.493,2.821-14.62,2.821-18.382l-0.342-2.508c2.964-1.026,5.737-1.539,8.321-1.539c0.38,0.533,0.57,1.463,0.57,2.793
			c0,3.041-0.96,8.92-2.879,17.642c-1.919,8.721-2.878,13.794-2.878,15.219c0,1.425,0.171,2.138,0.513,2.138l3.99-1.425l1.025,1.995
			c-1.292,1.026-2.859,1.977-4.702,2.85C432.066,72.747,430.49,73.184,429.18,73.184z"/>
		<path d="M456.91,48.902c0.075-0.076,0.285-0.57,0.627-1.482c1.785,0,4.18,0.533,7.182,1.596c-0.95,3.154-1.71,6.451-2.28,9.889
			c-0.569,3.44-0.854,5.891-0.854,7.353c0,1.463,0.151,2.195,0.456,2.195c0.228,0,1.063-0.361,2.508-1.083l0.684-0.342l1.026,1.995
			c-0.342,0.305-0.789,0.684-1.34,1.14s-1.587,1.074-3.106,1.853s-2.888,1.168-4.104,1.168c-2.356,0-3.725-1.063-4.104-3.192
			c-2.432,2.128-4.626,3.192-6.583,3.192c-1.958,0-3.61-0.76-4.959-2.28c-1.35-1.519-2.023-3.913-2.023-7.182
			c0-5.092,1.045-9.11,3.135-12.056c2.09-2.944,4.617-4.417,7.581-4.417C452.882,47.249,454.934,47.8,456.91,48.902z
			 M450.412,68.339c0.912,0,1.938-0.36,3.078-1.083c0.265-5.358,1.158-10.659,2.679-15.903c-1.14-0.494-2.109-0.741-2.907-0.741
			c-1.368,0-2.536,1.34-3.505,4.019c-0.97,2.679-1.454,5.634-1.454,8.864C448.303,66.724,449.006,68.339,450.412,68.339z"/>
		<path d="M468.423,72.671h-0.398c-0.077-0.304-0.114-0.998-0.114-2.081s0.513-3.999,1.539-8.75c1.026-4.75,1.539-7.467,1.539-8.151
			c0-1.177-0.532-2.47-1.596-3.876l-0.514-0.684l0.058-0.741c2.052-0.57,5.338-0.855,9.86-0.855
			c0.456,0.988,0.685,2.375,0.685,4.161c0.418-0.684,1.291-1.596,2.622-2.736c1.329-1.14,2.697-1.71,4.104-1.71
			c2.052,0,3.078,1.787,3.078,5.358c-0.19,0.228-0.447,0.523-0.77,0.884c-0.323,0.361-0.969,0.865-1.938,1.51
			c-0.97,0.646-1.91,1.045-2.822,1.197c-0.038,0-0.361-0.513-0.969-1.539c-0.608-1.026-1.064-1.539-1.368-1.539
			c-0.95,0.342-1.786,0.912-2.508,1.71c-1.748,7.866-2.622,12.958-2.622,15.276c0,0.836,0.019,1.425,0.058,1.767
			C475.016,72.406,472.375,72.671,468.423,72.671z"/>
		<path d="M539.046,54.146c0.418,1.026,0.702,2.147,0.854,3.363c-0.874,0.533-2.204,1.083-3.989,1.653
			c-1.787,0.57-3.459,0.912-5.017,1.026c-1.673,3.915-3.98,7.059-6.926,9.434c-2.945,2.375-6.603,3.562-10.972,3.562
			c-4.371,0-7.705-1.472-10.004-4.417c-2.3-2.944-3.448-7.03-3.448-12.255c0-5.225,1.216-9.994,3.647-14.307
			c2.432-4.312,5.909-7.685,10.432-10.118l1.196,1.995c-4.104,5.13-6.155,12.483-6.155,22.059c0,6.232,0.949,10.203,2.85,11.913
			c0.874,0.836,1.976,1.254,3.306,1.254c3.763,0,6.498-3.229,8.208-9.69c-2.964-0.532-5.243-1.796-6.84-3.791
			c-1.596-1.995-2.394-4.788-2.394-8.379c0-3.591,1.025-6.821,3.078-9.69c2.052-2.869,4.531-4.303,7.438-4.303
			c2.906,0,5.177,1.282,6.812,3.848c1.633,2.565,2.45,5.862,2.45,9.889c0,2.546-0.513,5.643-1.538,9.291
			c1.71-0.076,3.685-0.665,5.928-1.767L539.046,54.146z M524.567,47.049c0-2.716-0.152-4.731-0.456-6.042
			c-0.305-1.311-1.025-1.966-2.166-1.966c-1.14,0-2.194,0.846-3.163,2.537c-0.969,1.691-1.453,3.771-1.453,6.241
			c0,2.471,0.55,4.399,1.652,5.786c1.102,1.388,2.659,2.176,4.674,2.366C524.263,52.741,524.567,49.767,524.567,47.049z"/>
		<path d="M536.993,72.671h-1.083c0-1.786,0.541-5.206,1.624-10.26c1.083-5.054,1.625-7.923,1.625-8.607
			c0-1.254-0.532-2.584-1.596-3.99l-0.514-0.684l0.058-0.741c2.052-0.57,5.338-0.855,9.86-0.855c0.494,0.646,0.76,1.824,0.799,3.534
			c3.306-2.545,6.099-3.819,8.379-3.819c1.367,0,2.46,0.476,3.277,1.425c0.816,0.951,1.226,2.138,1.226,3.562
			c0,1.425-0.438,3.886-1.312,7.382c-0.874,3.497-1.311,5.842-1.311,7.04c0,1.197,0.151,1.795,0.456,1.795
			c0.228,0,1.025-0.361,2.394-1.083l0.685-0.342l1.025,1.995c-0.342,0.305-0.798,0.684-1.368,1.14
			c-0.569,0.456-1.624,1.074-3.163,1.853s-2.917,1.168-4.133,1.168c-2.774,0-4.161-1.577-4.161-4.731
			c0-1.33,0.428-3.781,1.283-7.353c0.854-3.571,1.282-5.871,1.282-6.897c0-1.026-0.323-1.539-0.969-1.539
			c-1.103,0-2.451,0.476-4.047,1.425c-0.114,0.646-0.495,2.357-1.141,5.13c-1.33,5.966-1.995,10.184-1.995,12.654
			C542.845,72.406,540.45,72.671,536.993,72.671z"/>
	</g>
	<path fill="#ED184B" d="M80.25,115.208"/>
</g>
</svg>
